if (_typeface_js && _typeface_js.loadFace) _typeface_js.loadFace({"glyphs":{"S":{"x_min":1,"x_max":1191,"ha":1360,"o":"m 170 1190 l 851 1190 l 851 1020 l 1021 1020 l 1021 850 l 681 850 l 681 1020 l 341 1020 l 341 680 l 1021 680 l 1021 510 l 1191 510 l 1191 170 l 1021 170 l 1021 0 l 170 0 l 170 170 l 1 170 l 1 340 l 341 340 l 341 170 l 851 170 l 851 510 l 170 510 l 170 680 l 1 680 l 1 1020 l 170 1020 l 170 1190 "},"/":{"x_min":1,"x_max":1191,"ha":1360,"o":"m 171 170 l 171 0 l 1 0 l 1 170 l 171 170 m 341 340 l 341 170 l 171 170 l 171 340 l 341 340 m 511 510 l 511 340 l 341 340 l 341 510 l 511 510 m 681 680 l 681 510 l 511 510 l 511 680 l 681 680 m 851 850 l 851 680 l 681 680 l 681 850 l 851 850 m 1021 1020 l 1021 850 l 851 850 l 851 1020 l 1021 1020 m 1021 1190 l 1191 1190 l 1191 1020 l 1021 1020 l 1021 1190 "},"K":{"x_min":1,"x_max":1191,"ha":1360,"o":"m 1 1190 l 341 1190 l 341 680 l 511 680 l 511 850 l 681 850 l 681 1020 l 851 1020 l 851 1190 l 1191 1190 l 1191 1020 l 1021 1020 l 1021 850 l 851 850 l 851 680 l 681 680 l 681 509 l 851 509 l 851 340 l 1021 340 l 1021 170 l 1191 170 l 1191 0 l 681 0 l 681 170 l 511 170 l 511 340 l 341 340 l 341 0 l 1 0 l 1 1190 "},"7":{"x_min":1,"x_max":1191,"ha":1360,"o":"m 1 850 l 1 1190 l 1191 1190 l 1191 850 l 1021 850 l 1021 679 l 851 679 l 851 510 l 681 510 l 681 0 l 341 0 l 341 510 l 511 510 l 511 679 l 681 679 l 681 850 l 851 850 l 851 1020 l 341 1020 l 341 850 l 1 850 "},"d":{"x_min":1,"x_max":1191,"ha":1360,"o":"m 1 1190 l 851 1190 l 851 1020 l 1021 1020 l 1021 850 l 1191 850 l 1191 340 l 1021 340 l 1021 170 l 851 170 l 851 0 l 1 0 l 1 1190 m 341 1020 l 341 170 l 681 170 l 681 340 l 851 340 l 851 850 l 681 850 l 681 1020 l 341 1020 "},",":{"x_min":171,"x_max":511,"ha":1360,"o":"m 341 170 l 341 0 l 171 0 l 171 170 l 341 170 m 171 680 l 511 680 l 511 170 l 341 170 l 341 340 l 171 340 l 171 680 "},"Y":{"x_min":170,"x_max":1190,"ha":1360,"o":"m 170 1190 l 510 1190 l 510 679 l 850 679 l 850 1190 l 1190 1190 l 1190 679 l 1020 679 l 1020 509 l 850 509 l 850 0 l 510 0 l 510 509 l 340 509 l 340 679 l 170 679 l 170 1190 "},"E":{"x_min":1,"x_max":1190.5625,"ha":1360,"o":"m 1 1190 l 1190 1190 l 1190 1020 l 341 1020 l 341 680 l 1020 680 l 1020 510 l 341 510 l 341 170 l 1190 170 l 1190 0 l 1 0 l 1 1190 "},"y":{"x_min":170,"x_max":1190,"ha":1360,"o":"m 170 1190 l 510 1190 l 510 679 l 850 679 l 850 1190 l 1190 1190 l 1190 679 l 1020 679 l 1020 509 l 850 509 l 850 0 l 510 0 l 510 509 l 340 509 l 340 679 l 170 679 l 170 1190 "},"\"":{"x_min":171,"x_max":1021,"ha":1360,"o":"m 171 1190 l 511 1190 l 511 680 l 341 680 l 341 850 l 171 850 l 171 1190 m 171 680 l 341 680 l 341 510 l 171 510 l 171 680 m 681 1190 l 1021 1190 l 1021 680 l 851 680 l 851 850 l 681 850 l 681 1190 m 681 680 l 851 680 l 851 510 l 681 510 l 681 680 "},"g":{"x_min":1,"x_max":1191,"ha":1360,"o":"m 341 1190 l 1191 1190 l 1191 1020 l 511 1020 l 511 850 l 341 850 l 341 340 l 511 340 l 511 170 l 851 170 l 851 510 l 680 510 l 680 680 l 1191 680 l 1191 0 l 341 0 l 341 170 l 171 170 l 171 340 l 1 340 l 1 850 l 171 850 l 171 1020 l 341 1020 l 341 1190 "},"ƒ":{"x_min":171,"x_max":1020.6875,"ha":1360,"o":"m 171 0 l 171 1190 l 341 1190 l 341 1020 l 680 1020 l 680 850 l 1020 850 l 1020 680 l 680 680 l 680 510 l 341 510 l 341 0 l 171 0 "},"e":{"x_min":1,"x_max":1190.5625,"ha":1360,"o":"m 1 1190 l 1190 1190 l 1190 1020 l 341 1020 l 341 680 l 1020 680 l 1020 510 l 341 510 l 341 170 l 1190 170 l 1190 0 l 1 0 l 1 1190 "},"J":{"x_min":1,"x_max":1191,"ha":1360,"o":"m 851 1190 l 1191 1190 l 1191 170 l 1020 170 l 1020 0 l 170 0 l 170 170 l 1 170 l 1 510 l 341 510 l 341 170 l 851 170 l 851 1190 "},"|":{"x_min":511,"x_max":681,"ha":1360,"o":"m 511 1190 l 681 1190 l 681 0 l 511 0 l 511 1190 "},"‐":{"x_min":0,"x_max":0,"ha":1360},"©":{"x_min":1,"x_max":1191,"ha":1360,"o":"m 171 170 l 1 170 l 1 1020 l 171 1020 l 171 170 m 1021 170 l 1021 0 l 171 0 l 171 170 l 1021 170 m 1021 1020 l 1191 1020 l 1191 170 l 1021 170 l 1021 1020 m 341 850 l 850 850 l 850 680 l 511 680 l 511 510 l 850 510 l 850 340 l 341 340 l 341 850 m 171 1020 l 171 1190 l 1021 1190 l 1021 1020 l 171 1020 "},"^":{"x_min":341,"x_max":851,"ha":1360,"o":"m 681 1020 l 851 1020 l 851 850 l 681 850 l 681 1020 m 511 1020 l 511 1190 l 681 1190 l 681 1020 l 511 1020 m 341 1020 l 511 1020 l 511 850 l 341 850 l 341 1020 "},"q":{"x_min":1,"x_max":1191,"ha":1360,"o":"m 1021 170 l 1191 170 l 1191 0 l 1021 0 l 1021 170 m 170 1190 l 1021 1190 l 1021 1020 l 1191 1020 l 1191 340 l 1021 340 l 1021 170 l 851 170 l 851 0 l 170 0 l 170 170 l 1 170 l 1 1020 l 170 1020 l 170 1190 m 341 1020 l 341 170 l 681 170 l 681 340 l 511 340 l 511 510 l 851 510 l 851 1020 l 341 1020 "},"b":{"x_min":1,"x_max":1191,"ha":1360,"o":"m 1 1190 l 1020 1190 l 1020 1020 l 1191 1020 l 1191 680 l 1020 680 l 1020 510 l 1191 510 l 1191 170 l 1020 170 l 1020 0 l 1 0 l 1 1190 m 341 1020 l 341 680 l 851 680 l 851 1020 l 341 1020 m 341 510 l 341 170 l 851 170 l 851 510 l 341 510 "},"D":{"x_min":1,"x_max":1191,"ha":1360,"o":"m 1 1190 l 851 1190 l 851 1020 l 1021 1020 l 1021 850 l 1191 850 l 1191 340 l 1021 340 l 1021 170 l 851 170 l 851 0 l 1 0 l 1 1190 m 341 1020 l 341 170 l 681 170 l 681 340 l 851 340 l 851 850 l 681 850 l 681 1020 l 341 1020 "},"z":{"x_min":1,"x_max":1190.5625,"ha":1360,"o":"m 1 1190 l 1190 1190 l 1190 850 l 1020 850 l 1020 679 l 850 679 l 850 509 l 680 509 l 680 340 l 510 340 l 510 170 l 1190 170 l 1190 0 l 1 0 l 1 340 l 170 340 l 170 509 l 340 509 l 340 679 l 510 679 l 510 850 l 680 850 l 680 1020 l 1 1020 l 1 1190 "},"w":{"x_min":1,"x_max":1191,"ha":1360,"o":"m 1 1190 l 341 1190 l 341 510 l 511 510 l 511 680 l 681 680 l 681 510 l 851 510 l 851 1190 l 1191 1190 l 1191 0 l 851 0 l 851 170 l 681 170 l 681 340 l 511 340 l 511 170 l 341 170 l 341 0 l 1 0 l 1 1190 "},"$":{"x_min":171,"x_max":1021,"ha":1360,"o":"m 341 680 l 171 680 l 171 850 l 341 850 l 341 680 m 851 510 l 1021 510 l 1021 340 l 851 340 l 851 510 m 681 510 l 681 340 l 851 340 l 851 170 l 681 170 l 681 0 l 511 0 l 511 170 l 171 170 l 171 340 l 511 340 l 511 510 l 341 510 l 341 680 l 511 680 l 511 850 l 341 850 l 341 1020 l 511 1020 l 511 1190 l 681 1190 l 681 1020 l 1021 1020 l 1021 850 l 681 850 l 681 680 l 851 680 l 851 510 l 681 510 "},"™":{"x_min":1,"x_max":1191,"ha":1360,"o":"m 1 1190 l 511 1190 l 511 1020 l 341 1020 l 341 510 l 171 510 l 171 1020 l 1 1020 l 1 1190 m 681 1190 l 851 1190 l 851 1020 l 1021 1020 l 1021 1190 l 1191 1190 l 1191 510 l 1021 510 l 1021 850 l 851 850 l 851 510 l 681 510 l 681 1190 "},"\\":{"x_min":1,"x_max":1191,"ha":1360,"o":"m 1021 170 l 1191 170 l 1191 0 l 1021 0 l 1021 170 m 851 340 l 1021 340 l 1021 170 l 851 170 l 851 340 m 681 510 l 851 510 l 851 340 l 681 340 l 681 510 m 511 680 l 681 680 l 681 510 l 511 510 l 511 680 m 341 850 l 511 850 l 511 680 l 341 680 l 341 850 m 171 1020 l 341 1020 l 341 850 l 171 850 l 171 1020 m 1 1190 l 171 1190 l 171 1020 l 1 1020 l 1 1190 "},"®":{"x_min":1,"x_max":1191,"ha":1360,"o":"m 171 170 l 1 170 l 1 1020 l 171 1020 l 171 170 m 1021 170 l 1021 0 l 171 0 l 171 170 l 1021 170 m 1021 1020 l 1191 1020 l 1191 170 l 1021 170 l 1021 1020 m 341 850 l 850 850 l 850 680 l 511 680 l 511 339 l 341 339 l 341 850 m 171 1020 l 171 1190 l 1021 1190 l 1021 1020 l 171 1020 "},"’":{"x_min":341,"x_max":681,"ha":1360,"o":"m 511 680 l 511 510 l 341 510 l 341 680 l 511 680 m 341 1190 l 681 1190 l 681 680 l 511 680 l 511 850 l 341 850 l 341 1190 "},"~":{"x_min":171,"x_max":1021,"ha":1360,"o":"m 341 1020 l 341 850 l 171 850 l 171 1020 l 341 1020 m 851 1020 l 851 1190 l 1021 1190 l 1021 1020 l 851 1020 m 341 1020 l 341 1190 l 681 1190 l 681 1020 l 851 1020 l 851 850 l 511 850 l 511 1020 l 341 1020 "},"-":{"x_min":171,"x_max":1020.6875,"ha":1360,"o":"m 171 680 l 1020 680 l 1020 510 l 171 510 l 171 680 "},"Q":{"x_min":1,"x_max":1191,"ha":1360,"o":"m 1021 170 l 1191 170 l 1191 0 l 1021 0 l 1021 170 m 170 1190 l 1021 1190 l 1021 1020 l 1191 1020 l 1191 340 l 1021 340 l 1021 170 l 851 170 l 851 0 l 170 0 l 170 170 l 1 170 l 1 1020 l 170 1020 l 170 1190 m 341 1020 l 341 170 l 681 170 l 681 340 l 511 340 l 511 510 l 851 510 l 851 1020 l 341 1020 "},"M":{"x_min":1,"x_max":1191,"ha":1360,"o":"m 1 1190 l 341 1190 l 341 1019 l 511 1019 l 511 849 l 681 849 l 681 1019 l 851 1019 l 851 1190 l 1191 1190 l 1191 0 l 851 0 l 851 509 l 681 509 l 681 339 l 511 339 l 511 509 l 341 509 l 341 0 l 1 0 l 1 1190 "},"C":{"x_min":1,"x_max":1191,"ha":1360,"o":"m 341 1190 l 1020 1190 l 1020 1020 l 1191 1020 l 1191 850 l 851 850 l 851 1020 l 511 1020 l 511 850 l 341 850 l 341 340 l 511 340 l 511 170 l 851 170 l 851 340 l 1191 340 l 1191 170 l 1020 170 l 1020 0 l 341 0 l 341 170 l 171 170 l 171 340 l 1 340 l 1 850 l 171 850 l 171 1020 l 341 1020 l 341 1190 "},"[":{"x_min":341,"x_max":850.8125,"ha":1360,"o":"m 341 1190 l 850 1190 l 850 1020 l 681 1020 l 681 170 l 850 170 l 850 0 l 341 0 l 341 1190 "},"L":{"x_min":1,"x_max":1190.5625,"ha":1360,"o":"m 1 1190 l 341 1190 l 341 170 l 1190 170 l 1190 0 l 1 0 l 1 1190 "},"!":{"x_min":341,"x_max":681,"ha":1360,"o":"m 341 1190 l 681 1190 l 681 509 l 341 509 l 341 1190 m 341 340 l 681 340 l 681 0 l 341 0 l 341 340 "}," ":{"x_min":0,"x_max":0,"ha":1360},"{":{"x_min":171,"x_max":851,"ha":1360,"o":"m 511 1190 l 851 1190 l 851 1020 l 681 1020 l 681 680 l 511 680 l 511 510 l 681 510 l 681 170 l 851 170 l 851 0 l 511 0 l 511 170 l 341 170 l 341 510 l 171 510 l 171 680 l 341 680 l 341 1020 l 511 1020 l 511 1190 "},"X":{"x_min":1,"x_max":1191,"ha":1360,"o":"m 1 1190 l 341 1190 l 341 1019 l 510 1019 l 510 850 l 680 850 l 680 1019 l 851 1019 l 851 1190 l 1191 1190 l 1191 850 l 1020 850 l 1020 679 l 851 679 l 851 509 l 1020 509 l 1020 340 l 1191 340 l 1191 0 l 851 0 l 851 169 l 680 169 l 680 340 l 510 340 l 510 169 l 341 169 l 341 0 l 1 0 l 1 340 l 170 340 l 170 509 l 341 509 l 341 679 l 170 679 l 170 850 l 1 850 l 1 1190 "},"P":{"x_min":1,"x_max":1191,"ha":1360,"o":"m 1 1190 l 1020 1190 l 1020 1020 l 1191 1020 l 1191 510 l 1020 510 l 1020 340 l 341 340 l 341 0 l 1 0 l 1 1190 m 851 1020 l 341 1020 l 341 510 l 851 510 l 851 1020 "},"%":{"x_min":0,"x_max":1189.5625,"ha":1360,"o":"m 169 849 l 0 849 l 0 1019 l 169 1019 l 169 849 m 339 849 l 339 679 l 169 679 l 169 849 l 339 849 m 339 1019 l 509 1019 l 509 849 l 339 849 l 339 1019 m 169 1019 l 169 1189 l 339 1189 l 339 1019 l 169 1019 m 849 169 l 679 169 l 679 339 l 849 339 l 849 169 m 1019 169 l 1019 0 l 849 0 l 849 169 l 1019 169 m 1019 339 l 1189 339 l 1189 169 l 1019 169 l 1019 339 m 849 339 l 849 509 l 1019 509 l 1019 339 l 849 339 m 1019 1019 l 1019 1189 l 1189 1189 l 1189 1019 l 1019 1019 m 849 849 l 849 1019 l 1019 1019 l 1019 849 l 849 849 m 679 679 l 679 849 l 849 849 l 849 679 l 679 679 m 509 509 l 509 679 l 679 679 l 679 509 l 509 509 m 339 339 l 339 509 l 509 509 l 509 339 l 339 339 m 169 169 l 169 339 l 339 339 l 339 169 l 169 169 m 0 0 l 0 169 l 169 169 l 169 0 l 0 0 "},"#":{"x_min":171,"x_max":1020.6875,"ha":1360,"o":"m 171 850 l 341 850 l 341 1020 l 511 1020 l 511 850 l 681 850 l 681 1020 l 851 1020 l 851 850 l 1020 850 l 1020 680 l 851 680 l 851 510 l 1020 510 l 1020 340 l 851 340 l 851 170 l 681 170 l 681 340 l 511 340 l 511 170 l 341 170 l 341 340 l 171 340 l 171 510 l 341 510 l 341 680 l 171 680 l 171 850 m 511 680 l 511 510 l 681 510 l 681 680 l 511 680 "},"_":{"x_min":1,"x_max":1190.5625,"ha":1360,"o":"m 1 170 l 1190 170 l 1190 0 l 1 0 l 1 170 "},"+":{"x_min":171,"x_max":1020.6875,"ha":1360,"o":"m 511 1020 l 681 1020 l 681 680 l 1020 680 l 1020 510 l 681 510 l 681 170 l 511 170 l 511 510 l 171 510 l 171 680 l 511 680 l 511 1020 "},")":{"x_min":340,"x_max":1020,"ha":1360,"o":"m 340 1190 l 680 1190 l 680 1020 l 850 1020 l 850 850 l 1020 850 l 1020 340 l 850 340 l 850 170 l 680 170 l 680 0 l 340 0 l 340 170 l 510 170 l 510 340 l 680 340 l 680 850 l 510 850 l 510 1020 l 340 1020 l 340 1190 "},"'":{"x_min":171,"x_max":511,"ha":1360,"o":"m 171 1190 l 511 1190 l 511 680 l 341 680 l 341 850 l 171 850 l 171 1190 m 171 680 l 341 680 l 341 510 l 171 510 l 171 680 "},"}":{"x_min":340,"x_max":1020,"ha":1360,"o":"m 340 1190 l 680 1190 l 680 1020 l 850 1020 l 850 680 l 1020 680 l 1020 510 l 850 510 l 850 170 l 680 170 l 680 0 l 340 0 l 340 170 l 510 170 l 510 510 l 680 510 l 680 680 l 510 680 l 510 1020 l 340 1020 l 340 1190 "},"a":{"x_min":1,"x_max":1191,"ha":1360,"o":"m 341 1190 l 851 1190 l 851 1020 l 1021 1020 l 1021 850 l 1191 850 l 1191 0 l 851 0 l 851 340 l 341 340 l 341 0 l 1 0 l 1 850 l 171 850 l 171 1020 l 341 1020 l 341 1190 m 511 1020 l 511 850 l 341 850 l 341 510 l 851 510 l 851 850 l 681 850 l 681 1020 l 511 1020 "},"T":{"x_min":170,"x_max":1189.625,"ha":1360,"o":"m 170 1190 l 1189 1190 l 1189 1020 l 850 1020 l 850 0 l 510 0 l 510 1020 l 170 1020 l 170 1190 "},"=":{"x_min":171,"x_max":1020.6875,"ha":1360,"o":"m 171 850 l 1020 850 l 1020 680 l 171 680 l 171 850 m 171 510 l 1020 510 l 1020 340 l 171 340 l 171 510 "},"N":{"x_min":1,"x_max":1191,"ha":1360,"o":"m 1 1190 l 341 1190 l 341 1019 l 510 1019 l 510 849 l 680 849 l 680 679 l 851 679 l 851 1190 l 1191 1190 l 1191 0 l 851 0 l 851 169 l 680 169 l 680 339 l 510 339 l 510 509 l 341 509 l 341 0 l 1 0 l 1 1190 "},"2":{"x_min":1,"x_max":1191,"ha":1360,"o":"m 1 850 l 1 1020 l 170 1020 l 170 1190 l 1020 1190 l 1020 1020 l 1191 1020 l 1191 680 l 1020 680 l 1020 510 l 851 510 l 851 340 l 510 340 l 510 170 l 1191 170 l 1191 0 l 1 0 l 1 340 l 170 340 l 170 509 l 341 509 l 341 680 l 680 680 l 680 850 l 851 850 l 851 1020 l 341 1020 l 341 850 l 1 850 "},"j":{"x_min":1,"x_max":1191,"ha":1360,"o":"m 851 1190 l 1191 1190 l 1191 170 l 1020 170 l 1020 0 l 170 0 l 170 170 l 1 170 l 1 510 l 341 510 l 341 170 l 851 170 l 851 1190 "},"Z":{"x_min":1,"x_max":1190.5625,"ha":1360,"o":"m 1 1190 l 1190 1190 l 1190 850 l 1020 850 l 1020 679 l 850 679 l 850 509 l 680 509 l 680 340 l 510 340 l 510 170 l 1190 170 l 1190 0 l 1 0 l 1 340 l 170 340 l 170 509 l 340 509 l 340 679 l 510 679 l 510 850 l 680 850 l 680 1020 l 1 1020 l 1 1190 "},"u":{"x_min":1,"x_max":1191,"ha":1360,"o":"m 1 1190 l 341 1190 l 341 170 l 851 170 l 851 1190 l 1191 1190 l 1191 170 l 1020 170 l 1020 0 l 170 0 l 170 170 l 1 170 l 1 1190 "},"1":{"x_min":170,"x_max":1189.625,"ha":1360,"o":"m 339 1020 l 510 1020 l 510 1190 l 850 1190 l 850 170 l 1189 170 l 1189 0 l 170 0 l 170 170 l 510 170 l 510 850 l 339 850 l 339 1020 "},"k":{"x_min":1,"x_max":1191,"ha":1360,"o":"m 1 1190 l 341 1190 l 341 680 l 511 680 l 511 850 l 681 850 l 681 1020 l 851 1020 l 851 1190 l 1191 1190 l 1191 1020 l 1021 1020 l 1021 850 l 851 850 l 851 680 l 681 680 l 681 509 l 851 509 l 851 340 l 1021 340 l 1021 170 l 1191 170 l 1191 0 l 681 0 l 681 170 l 511 170 l 511 340 l 341 340 l 341 0 l 1 0 l 1 1190 "},"<":{"x_min":171,"x_max":851,"ha":1360,"o":"m 511 1020 l 851 1020 l 851 850 l 681 850 l 681 680 l 511 680 l 511 510 l 681 510 l 681 340 l 851 340 l 851 170 l 511 170 l 511 340 l 341 340 l 341 510 l 171 510 l 171 680 l 341 680 l 341 850 l 511 850 l 511 1020 "},"t":{"x_min":170,"x_max":1189.625,"ha":1360,"o":"m 170 1190 l 1189 1190 l 1189 1020 l 850 1020 l 850 0 l 510 0 l 510 1020 l 170 1020 l 170 1190 "},"W":{"x_min":1,"x_max":1191,"ha":1360,"o":"m 1 1190 l 341 1190 l 341 510 l 511 510 l 511 680 l 681 680 l 681 510 l 851 510 l 851 1190 l 1191 1190 l 1191 0 l 851 0 l 851 170 l 681 170 l 681 340 l 511 340 l 511 170 l 341 170 l 341 0 l 1 0 l 1 1190 "},"ß":{"x_min":1,"x_max":1190.5625,"ha":1360,"o":"m 1 1190 l 1190 1190 l 1190 0 l 1 0 l 1 1190 "},"v":{"x_min":1,"x_max":1191,"ha":1360,"o":"m 1 1190 l 341 1190 l 341 679 l 511 679 l 511 509 l 681 509 l 681 679 l 851 679 l 851 1190 l 1191 1190 l 1191 509 l 1020 509 l 1020 339 l 851 339 l 851 169 l 681 169 l 681 0 l 511 0 l 511 169 l 341 169 l 341 339 l 170 339 l 170 509 l 1 509 l 1 1190 "},">":{"x_min":340,"x_max":1020,"ha":1360,"o":"m 340 1020 l 680 1020 l 680 850 l 850 850 l 850 680 l 1020 680 l 1020 510 l 850 510 l 850 340 l 680 340 l 680 170 l 340 170 l 340 340 l 510 340 l 510 510 l 680 510 l 680 680 l 510 680 l 510 850 l 340 850 l 340 1020 "},"s":{"x_min":1,"x_max":1191,"ha":1360,"o":"m 170 1190 l 851 1190 l 851 1020 l 1021 1020 l 1021 850 l 681 850 l 681 1020 l 341 1020 l 341 680 l 1021 680 l 1021 510 l 1191 510 l 1191 170 l 1021 170 l 1021 0 l 170 0 l 170 170 l 1 170 l 1 340 l 341 340 l 341 170 l 851 170 l 851 510 l 170 510 l 170 680 l 1 680 l 1 1020 l 170 1020 l 170 1190 "},"B":{"x_min":1,"x_max":1191,"ha":1360,"o":"m 1 1190 l 1020 1190 l 1020 1020 l 1191 1020 l 1191 680 l 1020 680 l 1020 510 l 1191 510 l 1191 170 l 1020 170 l 1020 0 l 1 0 l 1 1190 m 341 1020 l 341 680 l 851 680 l 851 1020 l 341 1020 m 341 510 l 341 170 l 851 170 l 851 510 l 341 510 "},"?":{"x_min":1,"x_max":1191,"ha":1360,"o":"m 1 850 l 1 1020 l 170 1020 l 170 1190 l 1020 1190 l 1020 1020 l 1191 1020 l 1191 850 l 1020 850 l 1020 680 l 681 680 l 681 510 l 341 510 l 341 680 l 510 680 l 510 850 l 851 850 l 851 1020 l 341 1020 l 341 850 l 1 850 m 341 340 l 681 340 l 681 0 l 341 0 l 341 340 "},"H":{"x_min":1,"x_max":1191,"ha":1360,"o":"m 1 1190 l 341 1190 l 341 680 l 851 680 l 851 1190 l 1191 1190 l 1191 0 l 851 0 l 851 510 l 341 510 l 341 0 l 1 0 l 1 1190 "},"c":{"x_min":1,"x_max":1191,"ha":1360,"o":"m 341 1190 l 1020 1190 l 1020 1020 l 1191 1020 l 1191 850 l 851 850 l 851 1020 l 511 1020 l 511 850 l 341 850 l 341 340 l 511 340 l 511 170 l 851 170 l 851 340 l 1191 340 l 1191 170 l 1020 170 l 1020 0 l 341 0 l 341 170 l 171 170 l 171 340 l 1 340 l 1 850 l 171 850 l 171 1020 l 341 1020 l 341 1190 "},"&":{"x_min":1,"x_max":1191,"ha":1360,"o":"m 681 1020 l 851 1020 l 851 680 l 681 680 l 681 1020 m 171 128 l 681 128 l 681 0 l 171 0 l 171 128 m 171 510 l 171 128 l 1 128 l 1 510 l 171 510 m 511 510 l 171 510 l 171 680 l 1 680 l 1 1020 l 171 1020 l 171 1190 l 681 1190 l 681 1020 l 341 1020 l 341 850 l 510 850 l 510 680 l 681 680 l 681 510 l 1191 510 l 1191 340 l 1021 340 l 1021 170 l 1191 170 l 1191 0 l 851 0 l 851 128 l 681 128 l 681 340 l 511 340 l 511 510 "},"I":{"x_min":170,"x_max":1189.625,"ha":1360,"o":"m 170 1190 l 1189 1190 l 1189 1020 l 850 1020 l 850 170 l 1189 170 l 1189 0 l 170 0 l 170 170 l 510 170 l 510 1020 l 170 1020 l 170 1190 "},"•":{"x_min":341,"x_max":681,"ha":1360,"o":"m 341 680 l 681 680 l 681 340 l 341 340 l 341 680 "},"G":{"x_min":1,"x_max":1191,"ha":1360,"o":"m 341 1190 l 1191 1190 l 1191 1020 l 511 1020 l 511 850 l 341 850 l 341 340 l 511 340 l 511 170 l 851 170 l 851 510 l 680 510 l 680 680 l 1191 680 l 1191 0 l 341 0 l 341 170 l 171 170 l 171 340 l 1 340 l 1 850 l 171 850 l 171 1020 l 341 1020 l 341 1190 "},"(":{"x_min":171,"x_max":851,"ha":1360,"o":"m 511 1190 l 851 1190 l 851 1020 l 681 1020 l 681 850 l 511 850 l 511 340 l 681 340 l 681 170 l 851 170 l 851 0 l 511 0 l 511 170 l 341 170 l 341 340 l 171 340 l 171 850 l 341 850 l 341 1020 l 511 1020 l 511 1190 "},"`":{"x_min":510,"x_max":850,"ha":1360,"o":"m 680 1020 l 850 1020 l 850 850 l 680 850 l 680 1020 m 510 1190 l 680 1190 l 680 1020 l 510 1020 l 510 1190 "},"U":{"x_min":1,"x_max":1191,"ha":1360,"o":"m 1 1190 l 341 1190 l 341 170 l 851 170 l 851 1190 l 1191 1190 l 1191 170 l 1020 170 l 1020 0 l 170 0 l 170 170 l 1 170 l 1 1190 "},"F":{"x_min":1,"x_max":1190.5625,"ha":1360,"o":"m 1 1190 l 1190 1190 l 1190 1020 l 341 1020 l 341 680 l 1020 680 l 1020 510 l 341 510 l 341 0 l 1 0 l 1 1190 "},"r":{"x_min":1,"x_max":1191,"ha":1360,"o":"m 1 1190 l 1020 1190 l 1020 1020 l 1191 1020 l 1191 510 l 851 510 l 851 340 l 1020 340 l 1020 170 l 1191 170 l 1191 0 l 680 0 l 680 170 l 510 170 l 510 340 l 341 340 l 341 0 l 1 0 l 1 1190 m 341 1020 l 341 510 l 680 510 l 680 680 l 851 680 l 851 1020 l 341 1020 "},":":{"x_min":171,"x_max":511,"ha":1360,"o":"m 171 1020 l 511 1020 l 511 680 l 171 680 l 171 1020 m 171 340 l 511 340 l 511 0 l 171 0 l 171 340 "},"x":{"x_min":1,"x_max":1191,"ha":1360,"o":"m 1 1190 l 341 1190 l 341 1019 l 510 1019 l 510 850 l 680 850 l 680 1019 l 851 1019 l 851 1190 l 1191 1190 l 1191 850 l 1020 850 l 1020 679 l 851 679 l 851 509 l 1020 509 l 1020 340 l 1191 340 l 1191 0 l 851 0 l 851 169 l 680 169 l 680 340 l 510 340 l 510 169 l 341 169 l 341 0 l 1 0 l 1 340 l 170 340 l 170 509 l 341 509 l 341 679 l 170 679 l 170 850 l 1 850 l 1 1190 "},"*":{"x_min":171,"x_max":1021,"ha":1360,"o":"m 341 510 l 341 340 l 171 340 l 171 510 l 341 510 m 851 510 l 1021 510 l 1021 340 l 851 340 l 851 510 m 851 680 l 851 850 l 1021 850 l 1021 680 l 851 680 m 341 680 l 511 680 l 511 1020 l 681 1020 l 681 680 l 851 680 l 851 510 l 681 510 l 681 170 l 511 170 l 511 510 l 341 510 l 341 680 m 171 850 l 341 850 l 341 680 l 171 680 l 171 850 "},"V":{"x_min":1,"x_max":1191,"ha":1360,"o":"m 1 1190 l 341 1190 l 341 679 l 511 679 l 511 509 l 681 509 l 681 679 l 851 679 l 851 1190 l 1191 1190 l 1191 509 l 1020 509 l 1020 339 l 851 339 l 851 169 l 681 169 l 681 0 l 511 0 l 511 169 l 341 169 l 341 339 l 170 339 l 170 509 l 1 509 l 1 1190 "},"å":{"x_min":1,"x_max":1190.5625,"ha":1360,"o":"m 1 509 l 341 509 l 341 1019 l 511 1019 l 511 1190 l 681 1190 l 681 1019 l 851 1019 l 851 509 l 1190 509 l 1190 0 l 1 0 l 1 509 "}," ":{"x_min":0,"x_max":0,"ha":1360},"h":{"x_min":1,"x_max":1191,"ha":1360,"o":"m 1 1190 l 341 1190 l 341 680 l 851 680 l 851 1190 l 1191 1190 l 1191 0 l 851 0 l 851 510 l 341 510 l 341 0 l 1 0 l 1 1190 "},"0":{"x_min":1,"x_max":1191,"ha":1360,"o":"m 851 170 l 851 0 l 341 0 l 341 170 l 171 170 l 171 340 l 1 340 l 1 850 l 171 850 l 171 1020 l 341 1020 l 341 340 l 511 340 l 511 170 l 851 170 m 341 1020 l 341 1190 l 851 1190 l 851 1020 l 1021 1020 l 1021 850 l 1191 850 l 1191 340 l 1021 340 l 1021 170 l 851 170 l 851 850 l 681 850 l 681 1020 l 341 1020 "},".":{"x_min":171,"x_max":511,"ha":1360,"o":"m 171 340 l 511 340 l 511 0 l 171 0 l 171 340 "},"”":{"x_min":171,"x_max":1021,"ha":1360,"o":"m 341 680 l 341 510 l 171 510 l 171 680 l 341 680 m 171 1190 l 511 1190 l 511 680 l 341 680 l 341 850 l 171 850 l 171 1190 m 851 680 l 851 510 l 681 510 l 681 680 l 851 680 m 681 1190 l 1021 1190 l 1021 680 l 851 680 l 851 850 l 681 850 l 681 1190 "},"@":{"x_min":1,"x_max":1191,"ha":1360,"o":"m 170 1190 l 1020 1190 l 1020 1020 l 1191 1020 l 1191 510 l 1020 510 l 1020 340 l 341 340 l 341 170 l 1020 170 l 1020 0 l 170 0 l 170 170 l 1 170 l 1 1020 l 170 1020 l 170 1190 m 341 1020 l 341 850 l 681 850 l 681 510 l 851 510 l 851 1020 l 341 1020 m 341 680 l 341 510 l 511 510 l 511 680 l 341 680 "},"f":{"x_min":1,"x_max":1190.5625,"ha":1360,"o":"m 1 1190 l 1190 1190 l 1190 1020 l 341 1020 l 341 680 l 1020 680 l 1020 510 l 341 510 l 341 0 l 1 0 l 1 1190 "},";":{"x_min":171,"x_max":511,"ha":1360,"o":"m 171 1190 l 511 1190 l 511 850 l 171 850 l 171 1190 m 341 170 l 341 0 l 171 0 l 171 170 l 341 170 m 171 680 l 511 680 l 511 170 l 341 170 l 341 340 l 171 340 l 171 680 "},"“":{"x_min":171,"x_max":1021,"ha":1360,"o":"m 341 1020 l 341 1190 l 511 1190 l 511 1020 l 341 1020 m 171 1020 l 341 1020 l 341 850 l 511 850 l 511 510 l 171 510 l 171 1020 m 851 1020 l 851 1190 l 1021 1190 l 1021 1020 l 851 1020 m 681 1020 l 851 1020 l 851 850 l 1021 850 l 1021 510 l 681 510 l 681 1020 "},"i":{"x_min":170,"x_max":1189.625,"ha":1360,"o":"m 170 1190 l 1189 1190 l 1189 1020 l 850 1020 l 850 170 l 1189 170 l 1189 0 l 170 0 l 170 170 l 510 170 l 510 1020 l 170 1020 l 170 1190 "},"6":{"x_min":1,"x_max":1191,"ha":1360,"o":"m 341 1190 l 1020 1190 l 1020 1020 l 511 1020 l 511 850 l 341 850 l 341 680 l 1020 680 l 1020 510 l 1191 510 l 1191 170 l 1020 170 l 1020 0 l 171 0 l 171 170 l 1 170 l 1 850 l 171 850 l 171 1020 l 341 1020 l 341 1190 m 341 510 l 341 170 l 851 170 l 851 510 l 341 510 "},"A":{"x_min":1,"x_max":1191,"ha":1360,"o":"m 341 1190 l 851 1190 l 851 1020 l 1021 1020 l 1021 850 l 1191 850 l 1191 0 l 851 0 l 851 340 l 341 340 l 341 0 l 1 0 l 1 850 l 171 850 l 171 1020 l 341 1020 l 341 1190 m 511 1020 l 511 850 l 341 850 l 341 510 l 851 510 l 851 850 l 681 850 l 681 1020 l 511 1020 "},"‘":{"x_min":510,"x_max":850,"ha":1360,"o":"m 680 1020 l 680 1190 l 850 1190 l 850 1020 l 680 1020 m 510 1020 l 680 1020 l 680 850 l 850 850 l 850 510 l 510 510 l 510 1020 "},"π":{"x_min":1,"x_max":1191,"ha":1360,"o":"m 171 170 l 1 170 l 1 1020 l 171 1020 l 171 170 m 1021 170 l 1021 0 l 171 0 l 171 170 l 341 170 l 341 850 l 851 850 l 851 340 l 511 340 l 511 170 l 1021 170 m 511 680 l 511 510 l 681 510 l 681 680 l 511 680 m 1021 1020 l 1191 1020 l 1191 170 l 1021 170 l 1021 1020 m 171 1020 l 171 1190 l 1021 1190 l 1021 1020 l 171 1020 "},"n":{"x_min":1,"x_max":1191,"ha":1360,"o":"m 1 1190 l 341 1190 l 341 1019 l 510 1019 l 510 849 l 680 849 l 680 679 l 851 679 l 851 1190 l 1191 1190 l 1191 0 l 851 0 l 851 169 l 680 169 l 680 339 l 510 339 l 510 509 l 341 509 l 341 0 l 1 0 l 1 1190 "},"O":{"x_min":1,"x_max":1191,"ha":1360,"o":"m 170 1190 l 1020 1190 l 1020 1020 l 1191 1020 l 1191 170 l 1020 170 l 1020 0 l 170 0 l 170 170 l 1 170 l 1 1020 l 170 1020 l 170 1190 m 341 1020 l 341 170 l 851 170 l 851 1020 l 341 1020 "},"3":{"x_min":1,"x_max":1191,"ha":1360,"o":"m 170 1190 l 1191 1190 l 1191 1020 l 1021 1020 l 1021 850 l 851 850 l 851 680 l 1021 680 l 1021 510 l 1191 510 l 1191 170 l 1021 170 l 1021 0 l 170 0 l 170 170 l 1 170 l 1 340 l 341 340 l 341 170 l 851 170 l 851 510 l 341 510 l 341 680 l 511 680 l 511 850 l 681 850 l 681 1020 l 170 1020 l 170 1190 "},"]":{"x_min":341,"x_max":851,"ha":1360,"o":"m 341 1190 l 851 1190 l 851 0 l 341 0 l 341 170 l 511 170 l 511 1020 l 341 1020 l 341 1190 "},"m":{"x_min":1,"x_max":1191,"ha":1360,"o":"m 1 1190 l 341 1190 l 341 1019 l 511 1019 l 511 849 l 681 849 l 681 1019 l 851 1019 l 851 1190 l 1191 1190 l 1191 0 l 851 0 l 851 509 l 681 509 l 681 339 l 511 339 l 511 509 l 341 509 l 341 0 l 1 0 l 1 1190 "},"9":{"x_min":1,"x_max":1191,"ha":1360,"o":"m 170 1190 l 1021 1190 l 1021 1020 l 1191 1020 l 1191 340 l 1021 340 l 1021 170 l 851 170 l 851 0 l 170 0 l 170 170 l 681 170 l 681 340 l 851 340 l 851 510 l 170 510 l 170 680 l 1 680 l 1 1020 l 170 1020 l 170 1190 m 341 1020 l 341 680 l 851 680 l 851 1020 l 341 1020 "},"l":{"x_min":1,"x_max":1190.5625,"ha":1360,"o":"m 1 1190 l 341 1190 l 341 170 l 1190 170 l 1190 0 l 1 0 l 1 1190 "},"8":{"x_min":1,"x_max":1191,"ha":1360,"o":"m 851 1020 l 1021 1020 l 1021 680 l 851 680 l 851 1020 m 171 170 l 1 170 l 1 510 l 171 510 l 171 170 m 171 510 l 171 680 l 1 680 l 1 1020 l 171 1020 l 171 1190 l 851 1190 l 851 1020 l 341 1020 l 341 850 l 510 850 l 510 680 l 851 680 l 851 510 l 1191 510 l 1191 170 l 1021 170 l 1021 0 l 171 0 l 171 170 l 851 170 l 851 340 l 510 340 l 510 510 l 171 510 "},"p":{"x_min":1,"x_max":1191,"ha":1360,"o":"m 1 1190 l 1020 1190 l 1020 1020 l 1191 1020 l 1191 510 l 1020 510 l 1020 340 l 341 340 l 341 0 l 1 0 l 1 1190 m 851 1020 l 341 1020 l 341 510 l 851 510 l 851 1020 "},"4":{"x_min":1,"x_max":1190.5625,"ha":1360,"o":"m 511 1190 l 1021 1190 l 1021 510 l 1190 510 l 1190 340 l 1021 340 l 1021 0 l 681 0 l 681 340 l 1 340 l 1 680 l 171 680 l 171 850 l 341 850 l 341 1020 l 511 1020 l 511 1190 m 511 850 l 511 680 l 341 680 l 341 510 l 681 510 l 681 850 l 511 850 "},"R":{"x_min":1,"x_max":1191,"ha":1360,"o":"m 1 1190 l 1020 1190 l 1020 1020 l 1191 1020 l 1191 510 l 851 510 l 851 340 l 1020 340 l 1020 170 l 1191 170 l 1191 0 l 680 0 l 680 170 l 510 170 l 510 340 l 341 340 l 341 0 l 1 0 l 1 1190 m 341 1020 l 341 510 l 680 510 l 680 680 l 851 680 l 851 1020 l 341 1020 "},"o":{"x_min":1,"x_max":1191,"ha":1360,"o":"m 170 1190 l 1020 1190 l 1020 1020 l 1191 1020 l 1191 170 l 1020 170 l 1020 0 l 170 0 l 170 170 l 1 170 l 1 1020 l 170 1020 l 170 1190 m 341 1020 l 341 170 l 851 170 l 851 1020 l 341 1020 "},"5":{"x_min":1,"x_max":1191,"ha":1360,"o":"m 1 1190 l 1020 1190 l 1020 1020 l 341 1020 l 341 850 l 1020 850 l 1020 680 l 1191 680 l 1191 170 l 1020 170 l 1020 0 l 170 0 l 170 170 l 1 170 l 1 340 l 341 340 l 341 170 l 851 170 l 851 680 l 1 680 l 1 1190 "}}}
